<svg width="355" height="96" viewBox="0 0 355 96" fill="none" xmlns="http://www.w3.org/2000/svg">
<rect width="355" height="96" rx="46" fill="url(#paint0_linear_11_9)"/>
<rect width="355" height="96" rx="46" fill="black" fill-opacity="0.2"/>
<path d="M57 47.2H64.85V59.6C61.3833 63.4667 56.5833 65.4 50.45 65.4C45.3167 65.4 41 63.7 37.5 60.3C34.0333 56.9 32.3 52.6167 32.3 47.45C32.3 42.25 34.0667 37.9167 37.6 34.45C41.1667 30.9833 45.45 29.25 50.45 29.25C55.4833 29.25 59.85 30.9 63.55 34.2L59.5 40.05C57.9333 38.6833 56.4833 37.75 55.15 37.25C53.85 36.7167 52.4333 36.45 50.9 36.45C47.9333 36.45 45.4333 37.4667 43.4 39.5C41.3667 41.5 40.35 44.15 40.35 47.45C40.35 50.75 41.3167 53.4 43.25 55.4C45.2167 57.3667 47.55 58.35 50.25 58.35C52.95 58.35 55.2 57.8333 57 56.8V47.2ZM94.35 61.1C91.3167 63.9667 87.75 65.4 83.65 65.4C79.5833 65.4 76.2167 64.15 73.55 61.65C70.8833 59.1167 69.55 55.7333 69.55 51.5C69.55 47.2667 70.9 43.9 73.6 41.4C76.3333 38.9 79.55 37.65 83.25 37.65C86.95 37.65 90.0833 38.7667 92.65 41C95.25 43.2333 96.55 46.3 96.55 50.2V54.2H76.95C77.1833 55.6667 77.95 56.8667 79.25 57.8C80.55 58.7333 82.0167 59.2 83.65 59.2C86.2833 59.2 88.45 58.3167 90.15 56.55L94.35 61.1ZM88.95 48.85C88.7833 47.25 88.1833 46.0167 87.15 45.15C86.1167 44.2833 84.85 43.85 83.35 43.85C81.8833 43.85 80.5333 44.3 79.3 45.2C78.0667 46.1 77.35 47.3167 77.15 48.85H88.95ZM110.615 43.5V55.55C110.615 56.5833 110.882 57.4 111.415 58C111.949 58.5667 112.582 58.85 113.315 58.85C114.715 58.85 115.899 58.2167 116.865 56.95L119.665 62.2C117.332 64.3333 114.865 65.4 112.265 65.4C109.699 65.4 107.515 64.55 105.715 62.85C103.949 61.15 103.065 58.8333 103.065 55.9V43.5H99.9152V38.1H103.065V30.05H110.615V38.1H117.115V43.5H110.615ZM149.97 30.05C155.337 30.05 159.237 31.1 161.67 33.2C164.137 35.2667 165.37 38.4667 165.37 42.8C165.37 47.1 164.104 50.25 161.57 52.25C159.07 54.25 155.237 55.25 150.07 55.25H145.42V65H137.62V30.05H149.97ZM150.67 48.5C153.27 48.5 155.037 47.9833 155.97 46.95C156.904 45.8833 157.37 44.35 157.37 42.35C157.37 40.3167 156.754 38.8833 155.52 38.05C154.32 37.1833 152.437 36.75 149.87 36.75H145.42V48.5H150.67ZM184.858 44.7C182.625 44.7 180.958 45.5 179.858 47.1C178.758 48.6667 178.208 50.75 178.208 53.35V65H170.708V38.1H178.208V41.65C179.175 40.55 180.375 39.6167 181.808 38.85C183.275 38.0833 184.758 37.6833 186.258 37.65L186.308 44.7H184.858ZM214.565 61.1C211.532 63.9667 207.965 65.4 203.865 65.4C199.798 65.4 196.432 64.15 193.765 61.65C191.098 59.1167 189.765 55.7333 189.765 51.5C189.765 47.2667 191.115 43.9 193.815 41.4C196.548 38.9 199.765 37.65 203.465 37.65C207.165 37.65 210.298 38.7667 212.865 41C215.465 43.2333 216.765 46.3 216.765 50.2V54.2H197.165C197.398 55.6667 198.165 56.8667 199.465 57.8C200.765 58.7333 202.232 59.2 203.865 59.2C206.498 59.2 208.665 58.3167 210.365 56.55L214.565 61.1ZM209.165 48.85C208.998 47.25 208.398 46.0167 207.365 45.15C206.332 44.2833 205.065 43.85 203.565 43.85C202.098 43.85 200.748 44.3 199.515 45.2C198.282 46.1 197.565 47.3167 197.365 48.85H209.165ZM242.423 56.65C242.423 59.2833 241.44 61.4 239.473 63C237.54 64.6 235.073 65.4 232.073 65.4C230.073 65.4 227.99 65.05 225.823 64.35C223.656 63.6167 221.706 62.55 219.973 61.15L223.273 56.45C226.073 58.6167 229.056 59.7 232.223 59.7C233.19 59.7 233.956 59.5167 234.523 59.15C235.09 58.75 235.373 58.2333 235.373 57.6C235.373 56.9667 234.973 56.3833 234.173 55.85C233.406 55.3167 232.273 54.8167 230.773 54.35C229.306 53.8833 228.173 53.4833 227.373 53.15C226.606 52.8167 225.723 52.3333 224.723 51.7C222.69 50.4333 221.673 48.5667 221.673 46.1C221.673 43.6 222.673 41.5667 224.673 40C226.673 38.4333 229.256 37.65 232.423 37.65C235.59 37.65 238.756 38.7167 241.923 40.85L239.123 45.85C236.79 44.25 234.456 43.45 232.123 43.45C229.823 43.45 228.673 44.0833 228.673 45.35C228.673 46.05 229.04 46.6 229.773 47C230.506 47.4 231.723 47.8667 233.423 48.4C235.123 48.9333 236.323 49.35 237.023 49.65C237.756 49.9167 238.623 50.35 239.623 50.95C241.49 52.0833 242.423 53.9833 242.423 56.65ZM271 65H263.95V61.75C262.016 64.1833 259.616 65.4 256.75 65.4C253.916 65.4 251.533 64.5833 249.6 62.95C247.666 61.2833 246.7 59.0833 246.7 56.35C246.7 53.5833 247.7 51.5167 249.7 50.15C251.7 48.7833 254.433 48.1 257.9 48.1H263.5V47.95C263.5 45.0833 261.983 43.65 258.95 43.65C257.65 43.65 256.266 43.9167 254.8 44.45C253.366 44.95 252.15 45.5833 251.15 46.35L247.8 41.5C251.333 38.9333 255.366 37.65 259.9 37.65C263.166 37.65 265.833 38.4667 267.9 40.1C269.966 41.7333 271 44.3167 271 47.85V65ZM263.45 54.75V53.45H258.75C255.75 53.45 254.25 54.3833 254.25 56.25C254.25 57.2167 254.6 57.9667 255.3 58.5C256.033 59 257.066 59.25 258.4 59.25C259.733 59.25 260.9 58.85 261.9 58.05C262.933 57.2167 263.45 56.1167 263.45 54.75ZM285.337 65H277.837V27.9H285.337V65ZM315.737 61.1C312.703 63.9667 309.137 65.4 305.037 65.4C300.97 65.4 297.603 64.15 294.937 61.65C292.27 59.1167 290.937 55.7333 290.937 51.5C290.937 47.2667 292.287 43.9 294.987 41.4C297.72 38.9 300.937 37.65 304.637 37.65C308.337 37.65 311.47 38.7667 314.037 41C316.637 43.2333 317.937 46.3 317.937 50.2V54.2H298.337C298.57 55.6667 299.337 56.8667 300.637 57.8C301.937 58.7333 303.403 59.2 305.037 59.2C307.67 59.2 309.837 58.3167 311.537 56.55L315.737 61.1ZM310.337 48.85C310.17 47.25 309.57 46.0167 308.537 45.15C307.503 44.2833 306.237 43.85 304.737 43.85C303.27 43.85 301.92 44.3 300.687 45.2C299.453 46.1 298.737 47.3167 298.537 48.85H310.337Z" fill="white"/>
<defs>
<linearGradient id="paint0_linear_11_9" x1="177.5" y1="0" x2="177.5" y2="96" gradientUnits="userSpaceOnUse">
<stop stop-color="#CA4E5E"/>
<stop offset="1" stop-color="#B20D22" stop-opacity="0.44"/>
</linearGradient>
</defs>
</svg>
